<svg xmlns="http://www.w3.org/2000/svg" width="31.875" height="25.35" viewBox="0 0 31.875 25.35">
  <defs>
    <style>
      .cls-1 {
        fill-rule: evenodd;
      }
    </style>
  </defs>
  <path id="シェイプ_2" data-name="シェイプ 2" class="cls-1" d="M331.942,2921.83a3.245,3.245,0,1,0,3.213,3.25A3.235,3.235,0,0,0,331.942,2921.83Zm15.032-5.78a3.134,3.134,0,0,0-2.208-.92h-3.375a0.7,0.7,0,0,1-.643-0.43l-1.011-2.26a3.119,3.119,0,0,0-2.846-1.85h-9.9a3.123,3.123,0,0,0-2.847,1.85h0l-1.01,2.26a0.7,0.7,0,0,1-.642.43h-3.375a3.122,3.122,0,0,0-3.119,3.14v14.53a3.122,3.122,0,0,0,3.119,3.13h25.647a3.126,3.126,0,0,0,3.119-3.13v-14.53A3.164,3.164,0,0,0,346.974,2916.05Zm-1.5,16.75a0.714,0.714,0,0,1-.21.51,0.7,0.7,0,0,1-.5.21H319.119a0.7,0.7,0,0,1-.5-0.21,0.718,0.718,0,0,1-.21-0.51v-14.53a0.724,0.724,0,0,1,.21-0.52,0.7,0.7,0,0,1,.5-0.21h3.375a3.12,3.12,0,0,0,2.845-1.85l1.008-2.27a0.711,0.711,0,0,1,.646-0.42h9.9a0.706,0.706,0,0,1,.645.42l1.01,2.27a3.12,3.12,0,0,0,2.845,1.85h3.375a0.7,0.7,0,0,1,.5.21,0.721,0.721,0,0,1,.211.52v14.53h0Zm-13.531-14.84a7,7,0,0,0-4.994,2.09,7.159,7.159,0,0,0,0,10.06,7.036,7.036,0,0,0,9.989,0,7.159,7.159,0,0,0,0-10.06A7.007,7.007,0,0,0,331.942,2917.96Zm3.676,10.84a5.159,5.159,0,0,1-7.353,0,5.295,5.295,0,0,1,0-7.44,5.159,5.159,0,0,1,7.353,0A5.292,5.292,0,0,1,335.618,2928.8Z" transform="translate(-316 -2910.59)"/>
</svg>
