<svg xmlns="http://www.w3.org/2000/svg" width="30.625" height="32.28" viewBox="0 0 30.625 32.28">
  <defs>
    <style>
      .cls-1 {
        fill-rule: evenodd;
      }
    </style>
  </defs>
  <path id="シェイプ_4" data-name="シェイプ 4" class="cls-1" d="M541.594,2907.02l-1.494,5.79H516.711l4.352,15.1H536.2l-0.546,2.11H522.123v2.23h15.259l5.936-23h4.036v-2.23h-5.76Zm-7.6,18.66v-4.26h3.882l-1.1,4.26H534Zm5.529-10.64-1.073,4.15H534v-4.15h5.529Zm-7.756,6.38v4.26h-4.393v-4.26h4.393Zm0-6.38v4.15h-4.393v-4.15h4.393Zm-6.619,0v4.15h-4.284l-1.2-4.15h5.481Zm0,6.38v4.26h-2.413l-1.229-4.26h3.642Zm-0.9,11.77a3,3,0,1,0,2.994,2.99A3,3,0,0,0,524.25,2933.19Zm0,3.76a0.765,0.765,0,1,1,.767-0.77A0.766,0.766,0,0,1,524.25,2936.95Zm10.533-3.63a2.99,2.99,0,1,0,2.994,2.99A2.994,2.994,0,0,0,534.783,2933.32Zm0,3.76a0.77,0.77,0,1,1,.768-0.77A0.772,0.772,0,0,1,534.783,2937.08Z" transform="translate(-516.719 -2907.03)"/>
</svg>
