<svg xmlns="http://www.w3.org/2000/svg" width="30.313" height="28.66" viewBox="0 0 30.313 28.66">
  <defs>
    <style>
      .cls-1 {
        fill-rule: evenodd;
      }
    </style>
  </defs>
  <path id="シェイプ_3" data-name="シェイプ 3" class="cls-1" d="M743.858,2912.33c-2.656-2.25-6.453-3.56-11.1-3.56a16.915,16.915,0,0,0-10.859,3.46,11.524,11.524,0,0,0-4.257,9.07,12.849,12.849,0,0,0,1.393,6.02,11.717,11.717,0,0,0,3.891,4.27c-0.4,1.67-.957,4.06-0.957,4.06a1.475,1.475,0,0,0,.535,1.5h0a1.46,1.46,0,0,0,.889.3,1.426,1.426,0,0,0,.692-0.18l0.021-.01,0.022-.01s0.3-.18.762-0.45c0.69-.41,1.743-1.03,2.682-1.58,0.469-.28.911-0.54,1.263-0.74s0.62-.37.72-0.42h0.005l0.007-.01a6.255,6.255,0,0,1,3.189-.87,19.389,19.389,0,0,0,10.137-2.52,10.735,10.735,0,0,0,3.661-3.74,11.262,11.262,0,0,0,1.414-5.69A11.457,11.457,0,0,0,743.858,2912.33Zm0.721,13.46a8.116,8.116,0,0,1-2.028,2.33,12.321,12.321,0,0,1-4.471,2.12,20.55,20.55,0,0,1-5.319.66,8.481,8.481,0,0,0-4.309,1.17h0c-0.186.1-.6,0.34-1.147,0.66-0.783.46-1.813,1.07-2.673,1.58,0.209-.9.453-1.93,0.635-2.69h0a1.876,1.876,0,0,0,.052-0.43,1.455,1.455,0,0,0-.182-0.71,1.419,1.419,0,0,0-.322-0.39,2.34,2.34,0,0,0-.352-0.23l-0.069-.04h-0.008a9.431,9.431,0,0,1-3.327-3.56,10.557,10.557,0,0,1-1.132-4.96,9.514,9.514,0,0,1,.893-4.1,9.838,9.838,0,0,1,4.371-4.43,16.016,16.016,0,0,1,7.57-1.72c4.223,0.01,7.46,1.19,9.623,3.02a9.165,9.165,0,0,1,3.307,7.16A9,9,0,0,1,744.579,2925.79Zm-18.934-6.16a1.745,1.745,0,1,0,1.746,1.74A1.744,1.744,0,0,0,725.645,2919.63Zm6.81,0a1.745,1.745,0,1,0,1.746,1.74A1.744,1.744,0,0,0,732.455,2919.63Zm6.81,0a1.745,1.745,0,1,0,1.747,1.74A1.744,1.744,0,0,0,739.265,2919.63Z" transform="translate(-717.656 -2908.78)"/>
</svg>
