<svg xmlns="http://www.w3.org/2000/svg" viewBox="0 0 233.62 146.44"><title>アセット 1</title><g id="レイヤー_2" data-name="レイヤー 2"><g id="_2" data-name="2"><path d="M85.46,0H44.65A6.69,6.69,0,0,0,38,6.67V86.38a6.69,6.69,0,0,0,6.67,6.68H85.46a6.69,6.69,0,0,0,6.67-6.68V6.67A6.69,6.69,0,0,0,85.46,0ZM88,85.86H42.15V7.79H88Z"/><path d="M195.4,86.39V45.58a6.69,6.69,0,0,0-6.67-6.67H109a6.7,6.7,0,0,0-6.68,6.67V86.39A6.7,6.7,0,0,0,109,93.06h79.71A6.69,6.69,0,0,0,195.4,86.39Zm-85.86,2.5V43.08h78.08V88.89Z"/><path d="M121.93,13.86h-3.37V7.79L104.79,19l13.77,11.16V23.55h1.26c5.59,0,13.35-.14,13.91,5.9C136.54,22.85,134.15,13.86,121.93,13.86Z"/><path d="M2.54,137v4.71H0V129H4.63A4.76,4.76,0,0,1,8,130.06,3.86,3.86,0,0,1,9.16,133,3.73,3.73,0,0,1,8,135.9,4.82,4.82,0,0,1,4.63,137Zm4.05-4a2,2,0,0,0-.52-1.46A2.39,2.39,0,0,0,4.36,131H2.54v3.91H4.36C5.84,134.94,6.59,134.29,6.59,133Z"/><path d="M13.36,128.37v13.32H10.82V128.37Z"/><path d="M25,137.19H17.64a2.77,2.77,0,0,0,.72,2,2.32,2.32,0,0,0,1.66.63,2.38,2.38,0,0,0,1.46-.43,1.94,1.94,0,0,0,.75-1.17h2.68a4.24,4.24,0,0,1-.84,1.87,4.49,4.49,0,0,1-1.67,1.3,5.7,5.7,0,0,1-4.85-.15,4.37,4.37,0,0,1-1.76-1.78,6.19,6.19,0,0,1,0-5.44,4.26,4.26,0,0,1,1.76-1.78,5.47,5.47,0,0,1,2.59-.61,5.29,5.29,0,0,1,2.58.61,4.28,4.28,0,0,1,1.71,1.69,4.8,4.8,0,0,1,.61,2.44A4.75,4.75,0,0,1,25,137.19Zm-3.11-3a2.43,2.43,0,0,0-1.7-.63,2.51,2.51,0,0,0-1.73.63,2.62,2.62,0,0,0-.77,1.85h4.84A2.23,2.23,0,0,0,21.84,134.22Z"/><path d="M32.9,132.19a3.21,3.21,0,0,1,1.28,1.6v-2.07H36.7v10H34.18V139.6a3.27,3.27,0,0,1-1.28,1.61,3.73,3.73,0,0,1-2.16.61,4.24,4.24,0,0,1-2.26-.62,4,4,0,0,1-1.58-1.77,6.8,6.8,0,0,1,0-5.45,4.1,4.1,0,0,1,1.58-1.78,4.32,4.32,0,0,1,2.26-.61A3.8,3.8,0,0,1,32.9,132.19Zm-3.27,2.39a3,3,0,0,0-.72,2.12,3,3,0,0,0,.72,2.12,2.49,2.49,0,0,0,1.91.76,2.53,2.53,0,0,0,1.9-.78,3.36,3.36,0,0,0,0-4.21,2.53,2.53,0,0,0-1.9-.78A2.46,2.46,0,0,0,29.63,134.58Z"/><path d="M45.36,132.51A4,4,0,0,1,46.73,135H44.35a1.89,1.89,0,0,0-2-1.59,1.54,1.54,0,0,0-1,.31,1,1,0,0,0-.36.83.87.87,0,0,0,.29.67,2.06,2.06,0,0,0,.72.39c.29.1.7.21,1.24.34a14.1,14.1,0,0,1,1.85.53,3,3,0,0,1,1.22.89,2.42,2.42,0,0,1,.51,1.62,2.49,2.49,0,0,1-1,2.07,4.19,4.19,0,0,1-2.69.8,5,5,0,0,1-3.11-.88,3.66,3.66,0,0,1-1.42-2.49h2.43a1.61,1.61,0,0,0,.65,1.16,2.33,2.33,0,0,0,1.45.42,1.38,1.38,0,0,0,1-.31,1.06,1.06,0,0,0,.35-.82.89.89,0,0,0-.3-.7,2.14,2.14,0,0,0-.74-.42c-.29-.09-.71-.21-1.25-.34a15.36,15.36,0,0,1-1.81-.51,2.82,2.82,0,0,1-1.19-.84,2.34,2.34,0,0,1-.49-1.58,2.61,2.61,0,0,1,1-2.11,4.19,4.19,0,0,1,2.73-.81A4.4,4.4,0,0,1,45.36,132.51Z"/><path d="M58,137.19H50.72a2.77,2.77,0,0,0,.72,2,2.34,2.34,0,0,0,1.66.63,2.39,2.39,0,0,0,1.47-.43,1.88,1.88,0,0,0,.74-1.17H58a4.36,4.36,0,0,1-2.52,3.17,5.7,5.7,0,0,1-4.85-.15,4.43,4.43,0,0,1-1.76-1.78,6.19,6.19,0,0,1,0-5.44,4.31,4.31,0,0,1,1.76-1.78,5.48,5.48,0,0,1,2.6-.61,5.35,5.35,0,0,1,2.58.61,4.28,4.28,0,0,1,1.71,1.69,4.9,4.9,0,0,1,.6,2.44A4.75,4.75,0,0,1,58,137.19Zm-3.1-3a2.45,2.45,0,0,0-1.7-.63,2.49,2.49,0,0,0-1.73.63,2.58,2.58,0,0,0-.78,1.85h4.85A2.26,2.26,0,0,0,54.93,134.22Z"/><path d="M67.86,132.12a4,4,0,0,1,2-.55v2.72h-.74c-1.86,0-2.79.87-2.79,2.6v4.8H63.84v-10h2.54v1.91A4.2,4.2,0,0,1,67.86,132.12Z"/><path d="M78.54,132.2A4.48,4.48,0,0,1,80.37,134a5.86,5.86,0,0,1,0,5.44,4.61,4.61,0,0,1-1.83,1.78,5.48,5.48,0,0,1-2.62.62,5.54,5.54,0,0,1-2.62-.62,4.58,4.58,0,0,1-1.82-1.78,5.86,5.86,0,0,1,0-5.44,4.45,4.45,0,0,1,1.82-1.78,5.65,5.65,0,0,1,2.62-.61A5.59,5.59,0,0,1,78.54,132.2Zm-4.42,2.34a3.58,3.58,0,0,0,0,4.33,2.53,2.53,0,0,0,3.6,0,3.54,3.54,0,0,0,0-4.33,2.54,2.54,0,0,0-3.6,0Z"/><path d="M88.16,139.51v2.18H86.83a3.66,3.66,0,0,1-2.56-.81,3.49,3.49,0,0,1-.9-2.7v-4.32H82v-2.14h1.38v-2.47h2.54v2.47h2.23v2.14H85.91v4.36a1.43,1.43,0,0,0,.29,1,1.36,1.36,0,0,0,1,.28Z"/><path d="M96.05,132.19a3.19,3.19,0,0,1,1.27,1.6v-2.07h2.52v10H97.32V139.6a3.25,3.25,0,0,1-1.27,1.61,3.73,3.73,0,0,1-2.16.61,4.27,4.27,0,0,1-2.27-.62A4.08,4.08,0,0,1,90,139.43,6.91,6.91,0,0,1,90,134a4.17,4.17,0,0,1,1.58-1.78,4.36,4.36,0,0,1,2.27-.61A3.8,3.8,0,0,1,96.05,132.19Zm-3.28,2.39a3,3,0,0,0-.72,2.12,3,3,0,0,0,.72,2.12,2.74,2.74,0,0,0,3.81,0,3.36,3.36,0,0,0,0-4.21,2.52,2.52,0,0,0-1.9-.78A2.47,2.47,0,0,0,92.77,134.58Z"/><path d="M107.48,139.51v2.18h-1.34a3.67,3.67,0,0,1-2.56-.81,3.52,3.52,0,0,1-.89-2.7v-4.32H101.3v-2.14h1.39v-2.47h2.54v2.47h2.23v2.14h-2.23v4.36a1.44,1.44,0,0,0,.28,1,1.38,1.38,0,0,0,1,.28Z"/><path d="M118.58,137.19h-7.31a2.77,2.77,0,0,0,.72,2,2.34,2.34,0,0,0,1.66.63,2.39,2.39,0,0,0,1.47-.43,1.88,1.88,0,0,0,.74-1.17h2.69a4.37,4.37,0,0,1-.85,1.87,4.46,4.46,0,0,1-1.66,1.3,5.72,5.72,0,0,1-4.86-.15,4.43,4.43,0,0,1-1.76-1.78,6.19,6.19,0,0,1,0-5.44,4.31,4.31,0,0,1,1.76-1.78,5.48,5.48,0,0,1,2.6-.61,5.35,5.35,0,0,1,2.58.61,4.28,4.28,0,0,1,1.71,1.69,4.9,4.9,0,0,1,.6,2.44A4.75,4.75,0,0,1,118.58,137.19Zm-3.1-3a2.43,2.43,0,0,0-1.7-.63,2.49,2.49,0,0,0-1.73.63,2.58,2.58,0,0,0-.78,1.85h4.85A2.26,2.26,0,0,0,115.48,134.22Z"/><path d="M126.11,131.72l2.71,6.77,2.52-6.77h2.79L128,146.44h-2.81l2.25-5-4.19-9.68Z"/><path d="M142.55,132.2a4.54,4.54,0,0,1,1.83,1.78,5.93,5.93,0,0,1,0,5.44,4.67,4.67,0,0,1-1.83,1.78,5.85,5.85,0,0,1-5.24,0,4.67,4.67,0,0,1-1.83-1.78,5.93,5.93,0,0,1,0-5.44,4.54,4.54,0,0,1,1.83-1.78,5.93,5.93,0,0,1,5.24,0Zm-4.42,2.34a3.54,3.54,0,0,0,0,4.33,2.54,2.54,0,0,0,3.6,0,3.54,3.54,0,0,0,0-4.33,2.53,2.53,0,0,0-3.6,0Z"/><path d="M156.38,131.72v10h-2.54v-2a3.18,3.18,0,0,1-1.3,1.57,3.89,3.89,0,0,1-2.1.57,3.51,3.51,0,0,1-2.75-1.14,4.5,4.5,0,0,1-1-3.16v-5.8h2.52v5.51a2.63,2.63,0,0,0,.61,1.84,2.15,2.15,0,0,0,1.66.66,2.31,2.31,0,0,0,1.75-.7,2.88,2.88,0,0,0,.64-2v-5.29Z"/><path d="M162.7,132.12a4,4,0,0,1,2.05-.55v2.72H164c-1.86,0-2.79.87-2.79,2.6v4.8h-2.53v-10h2.53v1.91A4.2,4.2,0,0,1,162.7,132.12Z"/><path d="M176.14,132.19a3.32,3.32,0,0,1,1.28,1.6v-5.42h2.52v13.32h-2.52V139.6a3.39,3.39,0,0,1-1.28,1.61,3.73,3.73,0,0,1-2.16.61,4.24,4.24,0,0,1-2.26-.62,4,4,0,0,1-1.58-1.77,6.91,6.91,0,0,1,0-5.45,4.1,4.1,0,0,1,1.58-1.78,4.32,4.32,0,0,1,2.26-.61A3.8,3.8,0,0,1,176.14,132.19Zm-3.27,2.39a3,3,0,0,0-.72,2.12,3,3,0,0,0,.72,2.12,2.49,2.49,0,0,0,1.91.76,2.53,2.53,0,0,0,1.9-.78,3.36,3.36,0,0,0,0-4.21,2.53,2.53,0,0,0-1.9-.78A2.46,2.46,0,0,0,172.87,134.58Z"/><path d="M191.54,137.19h-7.31a2.69,2.69,0,0,0,.72,2,2.3,2.3,0,0,0,1.65.63,2.39,2.39,0,0,0,1.47-.43,1.94,1.94,0,0,0,.75-1.17h2.68a4.26,4.26,0,0,1-.85,1.87,4.38,4.38,0,0,1-1.66,1.3,5.7,5.7,0,0,1-4.85-.15,4.4,4.4,0,0,1-1.77-1.78,6.19,6.19,0,0,1,0-5.44,4.28,4.28,0,0,1,1.77-1.78,5.44,5.44,0,0,1,2.59-.61,5.35,5.35,0,0,1,2.58.61,4.28,4.28,0,0,1,1.71,1.69,4.9,4.9,0,0,1,.6,2.44A5.73,5.73,0,0,1,191.54,137.19Zm-3.11-3a2.43,2.43,0,0,0-1.7-.63,2.49,2.49,0,0,0-1.73.63,2.54,2.54,0,0,0-.77,1.85h4.84A2.26,2.26,0,0,0,188.43,134.22Z"/><path d="M197.76,139.15l2.52-7.43H203l-3.69,10H196.2l-3.69-10h2.71Z"/><path d="M204.53,127.86a1.85,1.85,0,0,1,2.27,0,1.27,1.27,0,0,1,.43,1,1.26,1.26,0,0,1-.43,1,1.85,1.85,0,0,1-2.27,0,1.26,1.26,0,0,1-.43-1A1.27,1.27,0,0,1,204.53,127.86Zm2.39,3.86v10h-2.53v-10Z"/><path d="M216.92,132.64a4.55,4.55,0,0,1,1.62,2.84h-2.69a2,2,0,0,0-.73-1.25,2.26,2.26,0,0,0-1.46-.46,2.19,2.19,0,0,0-1.69.75,3.9,3.9,0,0,0,0,4.37,2.19,2.19,0,0,0,1.69.75,2.26,2.26,0,0,0,1.46-.46,2,2,0,0,0,.73-1.25h2.69a4.55,4.55,0,0,1-1.62,2.84,4.88,4.88,0,0,1-3.21,1,5.36,5.36,0,0,1-2.59-.62,4.37,4.37,0,0,1-1.76-1.78,6.19,6.19,0,0,1,0-5.44,4.26,4.26,0,0,1,1.76-1.78,5.47,5.47,0,0,1,2.59-.61A4.88,4.88,0,0,1,216.92,132.64Z"/><path d="M229.62,137.19h-7.31a2.77,2.77,0,0,0,.72,2,2.34,2.34,0,0,0,1.66.63,2.39,2.39,0,0,0,1.47-.43,1.88,1.88,0,0,0,.74-1.17h2.69a4.37,4.37,0,0,1-.85,1.87,4.46,4.46,0,0,1-1.66,1.3,5.72,5.72,0,0,1-4.86-.15,4.43,4.43,0,0,1-1.76-1.78,6.19,6.19,0,0,1,0-5.44,4.31,4.31,0,0,1,1.76-1.78,5.48,5.48,0,0,1,2.6-.61,5.35,5.35,0,0,1,2.58.61,4.28,4.28,0,0,1,1.71,1.69,4.9,4.9,0,0,1,.6,2.44A4.75,4.75,0,0,1,229.62,137.19Zm-3.1-3a2.43,2.43,0,0,0-1.7-.63,2.49,2.49,0,0,0-1.73.63,2.58,2.58,0,0,0-.78,1.85h4.85A2.26,2.26,0,0,0,226.52,134.22Z"/><path d="M233.62,139v2.65h-2.74V139Z"/></g></g></svg>